<svg width="142" height="34" viewBox="0 0 142 34" fill="none" xmlns="http://www.w3.org/2000/svg">
<g clip-path="url(#clip0_20005129_708)">
<g clip-path="url(#clip1_20005129_708)">
<path d="M70.9755 23.1257H66.3093V10.5911H70.9755V23.1257ZM66.7668 22.6683H70.5181V11.0486H66.7668V22.6683ZM77.4716 23.1257H72.8969V10.5911H82.5037C83.8761 10.4996 85.2485 10.8656 86.3464 11.689C86.7927 12.1459 87.1633 12.6709 87.4443 13.2444C87.7188 13.8849 87.8103 14.5253 87.7188 15.1658C87.8103 16.2637 87.4444 17.3616 86.7124 18.2766C85.889 19.283 84.5166 19.7405 82.5952 19.7405H77.563L77.4716 23.1257ZM73.3544 22.6683H77.0141V19.283H77.2886H82.5952C84.3336 19.283 85.706 18.8255 86.4379 18.0021C87.0784 17.1787 87.3529 16.2637 87.3529 15.2573C87.4443 14.7083 87.3529 14.0679 87.1699 13.5189C86.9869 12.97 86.6209 12.5125 86.1634 12.055C85.157 11.3231 83.8761 10.9571 82.5952 11.0486H73.4458L73.3544 22.6683ZM81.4973 16.9042H77.0141V13.5189H81.5888C81.9547 13.5189 82.2292 13.5189 82.5037 13.6104C82.7782 13.7019 83.0527 13.8849 83.3271 14.1594C83.5101 14.4339 83.6016 14.7998 83.6016 15.2573C83.6016 15.6233 83.5101 15.8977 83.4186 16.2637C83.2356 16.5382 82.9612 16.7212 82.5952 16.8127C82.2292 16.9042 81.8632 16.9957 81.4973 16.9042ZM77.4716 16.4467H81.4973C82.2292 16.4467 82.6867 16.2637 82.9612 15.9892C83.0527 15.7148 83.1441 15.5318 83.1441 15.2573C83.1441 14.9828 83.1442 14.7083 82.9612 14.4339C82.7782 14.0679 82.3207 13.9764 81.5888 13.9764H77.4716V16.4467ZM96.0447 23.3087C91.9275 23.3087 89.4572 22.3023 88.5423 20.1979C88.3593 19.832 88.2678 19.3745 88.2678 18.917V18.6426H93.1169V18.8255C93.1169 19.0085 93.2084 19.1915 93.3914 19.3745C93.5744 19.649 94.2149 20.015 96.4107 20.015C98.9725 20.015 98.9725 19.5575 98.9725 19.283C98.9725 18.917 98.698 18.734 96.5937 18.5511H96.2277L93.9404 18.3681C90.0977 18.0021 88.3593 16.8127 88.3593 14.5253C88.3593 12.055 91.2871 10.4996 95.7703 10.4996C99.43 10.4996 101.809 11.5061 102.815 13.4274C103.09 13.8849 103.181 14.3424 103.273 14.8913V15.1658H98.4236V14.9828C98.4236 14.7998 98.3321 14.7083 98.2406 14.5253C98.0576 14.2509 97.5086 13.8849 95.6788 13.8849C93.4829 13.8849 93.2084 14.1594 93.2084 14.4339C93.2084 14.7998 93.9404 14.9828 96.1362 15.2573L99.064 15.5318C102.266 15.8978 103.73 17.0872 103.73 19.283C103.639 21.0214 102.358 23.3087 96.0447 23.3087ZM88.7253 19.1C88.8167 19.3745 88.8167 19.7405 88.9997 20.015C89.8232 21.9363 92.202 22.8513 96.0447 22.8513C99.3385 22.8513 103.181 22.2108 103.181 19.1C103.181 17.0872 101.9 16.0807 98.9725 15.8063C98.4236 15.7148 96.9597 15.6233 96.0447 15.5318C93.6659 15.2573 92.6595 15.1658 92.6595 14.2509C92.6595 13.3359 93.6659 13.2444 95.5873 13.2444C97.1427 13.2444 98.0576 13.5189 98.5151 14.0679C98.6066 14.1594 98.698 14.3424 98.7895 14.5253H102.724C102.632 14.1594 102.541 13.7934 102.358 13.5189C101.443 11.7805 99.247 10.8656 95.6788 10.8656C91.4701 10.8656 88.7253 12.238 88.7253 14.4339C88.7253 16.5382 90.2806 17.5446 93.8489 17.8191C94.3064 17.8191 95.3128 17.9106 96.1362 18.0021H96.5022C98.4236 18.1851 99.3385 18.3681 99.3385 19.1915C99.3385 20.1979 98.2406 20.3809 96.3192 20.3809C94.5808 20.3809 93.3914 20.1065 93.0255 19.5575C92.934 19.3745 92.751 19.1915 92.751 19.0085H88.7253V19.1ZM112.331 23.3087C107.573 23.3087 104.92 21.3874 104.92 17.9106V10.6826H109.586V17.9106C109.586 19.1 110.684 19.832 112.514 19.832C114.343 19.832 115.441 19.1 115.441 17.9106V10.6826H120.016V18.1851C120.016 21.3874 117.18 23.3087 112.331 23.3087ZM105.377 11.0486V17.8191C105.377 22.1193 109.769 22.7598 112.331 22.7598C114.984 22.7598 119.559 22.1193 119.559 18.1851V11.0486H115.899V17.8191C115.899 19.1915 114.618 20.1979 112.514 20.1979C110.409 20.1979 109.128 19.283 109.128 17.8191V11.0486H105.377ZM139.413 23.1257H135.021V17.4531L132.551 23.1257H128.708L126.238 17.4531V23.1257H121.846V10.5911H127.61L130.629 17.4531L133.74 10.5911H139.321L139.413 23.1257ZM135.478 22.6683H138.955V11.0486H134.106L130.629 18.6426L127.336 11.0486H122.303V22.6683H125.78V15.2573L128.982 22.6683H132.185L135.387 15.2573L135.478 22.6683ZM7.29604 10.7741H3.08734V22.8513H14.6155V19.649H7.29604V10.7741ZM23.0329 10.4996C17.7263 10.4996 14.89 13.0615 14.89 16.7212C14.89 20.9299 17.8178 23.0342 23.0329 23.0342C28.7055 23.0342 31.1758 20.5639 31.1758 16.7212C31.0844 12.8785 28.431 10.4996 23.0329 10.4996ZM23.0329 13.7019C23.3989 13.7019 23.7649 13.7019 24.1308 13.7934L19.4647 18.4596C19.2817 18.0021 19.0987 17.4531 19.1902 16.9042C19.0987 14.8913 20.0136 13.7019 23.0329 13.7019ZM23.0329 20.015C22.667 20.015 22.301 20.015 22.0265 19.9235L26.6927 15.2573C26.8757 15.7148 26.9671 16.2637 26.9671 16.8127C26.9671 18.6426 26.0522 19.9235 23.0329 20.015ZM39.4103 18.3681H43.7105C43.619 18.6426 43.5275 18.917 43.3445 19.1915C42.4295 19.9235 41.3316 20.2894 40.1422 20.1979C39.5932 20.2894 38.9528 20.1979 38.4038 20.015C37.8549 19.832 37.3974 19.5575 36.9399 19.1C36.4825 18.4596 36.2995 17.7276 36.391 16.9042C36.2995 16.0807 36.574 15.2573 37.0314 14.6168C37.6719 13.9764 38.6783 13.6104 40.1422 13.6104C41.0571 13.5189 42.0636 13.7934 42.7955 14.3424C43.07 14.5253 43.253 14.7998 43.3445 15.0743H47.2787C47.2787 14.6168 47.0957 14.0679 46.9127 13.6104C45.9978 11.689 43.7105 10.4996 39.9592 10.4996C36.6655 10.4996 34.4696 11.5061 33.2802 12.97C32.4568 14.0679 32.0908 15.3488 32.0908 16.7212C31.9993 18.0936 32.4568 19.466 33.1887 20.5639C34.3781 22.1193 36.4825 22.8513 39.1358 22.8513C40.8742 22.9428 42.521 22.4853 43.8934 21.4789L43.9849 22.6683H47.2787V15.5318H39.2273V18.3681H39.4103ZM56.794 10.4996C51.4874 10.4996 48.6511 13.0615 48.6511 16.7212C48.6511 20.9299 51.5789 23.0342 56.794 23.0342C62.4666 23.0342 64.9369 20.5639 64.9369 16.7212C64.8455 12.8785 62.1921 10.4996 56.794 10.4996ZM56.794 13.7019C57.16 13.7019 57.526 13.7019 57.8919 13.7934L53.2258 18.4596C53.0428 18.0021 52.9513 17.4531 52.9513 16.9042C52.8598 14.8913 53.7747 13.7019 56.794 13.7019ZM56.794 19.9235C56.4281 19.9235 56.0621 19.9235 55.6961 19.832L60.3623 15.1658C60.5453 15.6233 60.7282 16.1722 60.6368 16.7212C60.7282 18.6426 59.8133 19.9235 56.794 19.9235Z" fill="#B4B7C9"/>
</g>
</g>
<defs>
<clipPath id="clip0_20005129_708">
<rect width="140.9" height="32.94" fill="white" transform="translate(0.800003 0.800049)"/>
</clipPath>
<clipPath id="clip1_20005129_708">
<rect width="140.9" height="32.94" fill="white" transform="translate(0.800003 0.800049)"/>
</clipPath>
</defs>
</svg>
